<svg width="20" height="19" viewBox="0 0 20 19" fill="none" xmlns="http://www.w3.org/2000/svg">
<rect width="20" height="19" fill="black"/>
<g id="For developer - BOF">
<rect width="24293" height="7570" transform="translate(-1577 -3738)" fill="#4F4F4F"/>
<g id="Caselista" clip-path="url(#clip0_0_1)">
<rect width="1920" height="1183" transform="translate(-831 -293)" fill="#F2FAFF"/>
<g id="Component 59">
<g id="Rectangle 217" filter="url(#filter0_d_0_1)">
<rect x="-406" y="-29" width="1420" height="940" rx="40" fill="white"/>
</g>
<path id="Rectangle 233" d="M-406 -140C-406 -162.091 -388.091 -180 -366 -180H-80.0171C-63.1968 -180 -48.1736 -169.477 -42.4254 -153.67L8.48376 -13.6697C17.9701 12.4177 -1.34943 40 -29.108 40H-366C-388.091 40 -406 22.0914 -406 0V-140Z" fill="white"/>
<g id="Group 107">
<path id="Vector" d="M18.8983 10.9471C18.955 10.5914 18.9911 10.2357 19.0015 9.86963C19.0221 9.3438 19.0015 8.81796 18.9344 8.29728C18.8622 7.75598 18.7539 7.22499 18.5888 6.70947C18.0937 5.13197 17.2478 3.77098 16.0512 2.62652C15.3911 1.99758 14.6587 1.47174 13.8489 1.05932C13.395 0.827338 12.936 0.636594 12.4615 0.481936C12.446 0.476781 12.4305 0.471626 12.4202 0.466471C12.3996 0.461315 12.379 0.45616 12.3583 0.44585C11.5486 0.188088 10.7233 0.0385856 9.8723 0.00765414C9.34621 -0.0129668 8.82013 0.00765414 8.2992 0.0746723C7.75764 0.146846 7.2264 0.255106 6.71062 0.420074C6.50947 0.481936 6.31348 0.55411 6.11749 0.626283C4.859 1.10057 3.74493 1.81714 2.77528 2.78117C2.0171 3.53899 1.40333 4.39992 0.939137 5.36395C0.433681 6.41046 0.129377 7.50853 0.0313803 8.66331C0.000434043 8.9984 0.00559302 9.3438 0.000435304 9.67889C-0.00472241 10.0707 0.0365355 10.4625 0.0932704 10.8491C0.180952 11.4471 0.320213 12.0297 0.521363 12.5968C0.61936 12.8751 0.727668 13.1432 0.846296 13.4061C1.31049 14.4526 1.96037 15.3909 2.79076 16.226C3.54894 16.9839 4.41028 17.5973 5.37477 18.0613C6.42179 18.5665 7.52038 18.8707 8.67571 18.9686C9.01096 18.9996 9.35653 18.9944 9.69178 18.9996C10.0838 19.0047 10.4758 18.9635 10.8626 18.9068C11.4609 18.8191 12.0437 18.6799 12.6111 18.4789C14.0501 17.9788 15.2931 17.1798 16.3504 16.0817C17.1859 15.2156 17.8358 14.2258 18.2949 13.1174C18.5682 12.4524 18.7642 11.7719 18.8828 11.076C18.8828 11.0708 18.8828 11.0708 18.8828 11.0656C18.8828 11.0347 18.8931 10.9935 18.8983 10.9471ZM13.9263 16.3704C13.9005 16.3807 13.8747 16.3962 13.8489 16.4116C13.6117 16.556 13.3692 16.6952 13.1217 16.8189C12.5904 17.0818 12.0489 17.288 11.4918 17.4324C11.466 17.4375 11.4454 17.4427 11.4196 17.453C11.4093 17.4581 11.399 17.4581 11.3835 17.4633C10.8368 17.5922 10.2746 17.6644 9.69694 17.6798C9.66084 17.6798 9.62473 17.6798 9.58347 17.6798C9.54737 17.6798 9.51642 17.6798 9.48032 17.6798C9.45453 17.6798 9.43389 17.6798 9.40811 17.6798C9.34106 17.6798 9.27917 17.6798 9.21212 17.6747C9.18117 17.6747 9.15022 17.6747 9.11412 17.6695C9.09349 17.6695 9.0677 17.6695 9.04707 17.6644C8.8717 17.654 8.7015 17.6386 8.52614 17.618C8.50035 17.6128 8.4694 17.6128 8.44361 17.6076C8.41783 17.6025 8.38688 17.6025 8.36109 17.5973C8.27341 17.587 8.19089 17.5716 8.10321 17.5561C7.25734 17.4118 6.45273 17.1385 5.69455 16.7313C4.2607 15.9631 3.13633 14.8754 2.3472 13.4577C1.69732 12.2926 1.36723 11.0347 1.32081 9.69951C1.31049 9.30771 1.33112 8.91591 1.37754 8.52411C1.42912 8.08592 1.51164 7.65803 1.63543 7.2353C1.66638 7.1322 1.69732 7.02909 1.73343 6.92599C1.74374 6.90021 1.7489 6.87444 1.75922 6.84866C1.77985 6.79195 1.80047 6.73009 1.82111 6.67338C1.84689 6.60636 1.87268 6.53935 1.89847 6.47233V6.46717C2.31625 5.4155 2.94033 4.47725 3.76557 3.66788C4.46186 2.98738 5.2613 2.44608 6.14843 2.04397C7.11808 1.60578 8.13415 1.37379 9.19664 1.33255C9.68662 1.31193 10.1766 1.34286 10.6614 1.41504C11.2236 1.49752 11.7703 1.63671 12.3016 1.83261C12.8328 2.02851 13.3331 2.27596 13.8128 2.56981C13.8437 2.59043 13.8798 2.6059 13.916 2.62136C14.4214 2.94614 14.8908 3.32763 15.3189 3.77098C15.7057 4.16793 16.0461 4.59582 16.3452 5.04948C16.3607 5.08557 16.3762 5.1165 16.3968 5.15259C16.5412 5.38973 16.6805 5.63202 16.8043 5.87947C17.1911 6.65276 17.449 7.45182 17.5728 8.27666C17.5728 8.29213 17.5779 8.30244 17.5779 8.3179C17.5882 8.37461 17.5934 8.43647 17.6037 8.49318C17.6089 8.51896 17.6089 8.54473 17.614 8.57567C17.6192 8.63237 17.6243 8.69424 17.6347 8.7561C17.6347 8.77157 17.6398 8.79219 17.6398 8.80765C17.645 8.88498 17.6501 8.96746 17.6553 9.04479C17.6553 9.04995 17.6553 9.06026 17.6553 9.06541C17.6708 9.31802 17.6708 9.57063 17.6605 9.82839C17.6553 9.91087 17.6501 9.99851 17.645 10.081C17.645 10.0913 17.645 10.0965 17.645 10.1068C17.6398 10.1635 17.6347 10.215 17.6295 10.2717C17.614 10.4058 17.5986 10.5398 17.5779 10.6739C17.4954 11.2358 17.3562 11.7822 17.1602 12.3132C17.0157 12.6999 16.8455 13.071 16.6495 13.4267C16.6341 13.4577 16.6134 13.4886 16.598 13.5195C16.5877 13.5402 16.5773 13.5556 16.567 13.5762C15.9171 14.7259 15.0352 15.659 13.9263 16.3704Z" fill="#D60707"/>
<path id="Vector_2" d="M13.5547 4.74491C13.2968 4.47684 12.8171 4.49746 12.5695 4.79131C12.389 5.00267 12.2136 5.21919 12.0331 5.43056C11.311 6.29664 10.589 7.15756 9.86689 8.02365C9.49553 8.467 9.12933 8.91035 8.75798 9.3537H8.74766C8.37631 9.79705 8.00495 10.2456 7.6336 10.6889C6.89604 11.5756 6.15333 12.4623 5.41578 13.349C5.194 13.6171 5.20431 14.0192 5.44673 14.2666C5.70461 14.5347 6.18428 14.5141 6.43185 14.2202C6.61237 14.0089 6.78773 13.7924 6.96825 13.581C7.69033 12.7149 8.41241 11.854 9.13449 10.9879C9.50585 10.5446 9.87205 10.1012 10.2434 9.65786H10.2537C10.6251 9.21451 10.9964 8.766 11.3678 8.32265C12.1053 7.43595 12.848 6.54925 13.5856 5.66254C13.8125 5.39447 13.8022 4.99236 13.5547 4.74491Z" fill="#D60707"/>
<path id="Vector_3" d="M5.44673 4.74491C5.70461 4.47684 6.18428 4.49746 6.43185 4.79131C6.61237 5.00267 6.78773 5.21919 6.96825 5.43056C7.69033 6.29664 8.41241 7.15756 9.13449 8.02365C9.50585 8.467 9.87205 8.91035 10.2434 9.3537H10.2537C10.6251 9.79705 10.9964 10.2456 11.3678 10.6889C12.1053 11.5756 12.848 12.4623 13.5856 13.349C13.8074 13.6171 13.7971 14.0192 13.5547 14.2666C13.2968 14.5347 12.8171 14.5141 12.5695 14.2202C12.389 14.0089 12.2136 13.7924 12.0331 13.581C11.311 12.7149 10.589 11.854 9.86689 10.9879C9.49553 10.5446 9.12933 10.1012 8.75798 9.65786H8.74766C8.37631 9.21451 8.00495 8.766 7.6336 8.32265C6.89604 7.43595 6.15333 6.54925 5.41578 5.66254C5.194 5.39447 5.20431 4.99236 5.44673 4.74491Z" fill="#D60707"/>
</g>
</g>
</g>
</g>
<defs>
<filter id="filter0_d_0_1" x="-440" y="-63" width="1488" height="1008" filterUnits="userSpaceOnUse" color-interpolation-filters="sRGB">
<feFlood flood-opacity="0" result="BackgroundImageFix"/>
<feColorMatrix in="SourceAlpha" type="matrix" values="0 0 0 0 0 0 0 0 0 0 0 0 0 0 0 0 0 0 127 0" result="hardAlpha"/>
<feOffset/>
<feGaussianBlur stdDeviation="17"/>
<feComposite in2="hardAlpha" operator="out"/>
<feColorMatrix type="matrix" values="0 0 0 0 0 0 0 0 0 0 0 0 0 0 0 0 0 0 0.05 0"/>
<feBlend mode="normal" in2="BackgroundImageFix" result="effect1_dropShadow_0_1"/>
<feBlend mode="normal" in="SourceGraphic" in2="effect1_dropShadow_0_1" result="shape"/>
</filter>
<clipPath id="clip0_0_1">
<rect width="1920" height="1183" fill="white" transform="translate(-831 -293)"/>
</clipPath>
</defs>
</svg>
